<?xml version="1.0" standalone="no"?>
<!DOCTYPE svg PUBLIC "-//W3C//DTD SVG 20010904//EN"
 "http://www.w3.org/TR/2001/REC-SVG-20010904/DTD/svg10.dtd">
<svg version="1.0" xmlns="http://www.w3.org/2000/svg"
 width="16.000000pt" height="16.000000pt" viewBox="0 0 16.000000 16.000000"
 preserveAspectRatio="xMidYMid meet">

<g transform="translate(0.000000,16.000000) scale(0.100000,-0.100000)"
fill="#000000" stroke="none">
<path d="M55 141 c-3 -11 -16 -21 -28 -23 -26 -4 -37 -45 -14 -54 9 -3 12 -14
10 -29 -6 -31 18 -36 108 -26 6 0 9 12 7 25 -3 16 0 27 9 30 23 9 12 50 -14
54 -12 2 -25 12 -28 23 -8 25 -42 25 -50 0z m42 -7 c7 -18 -17 -38 -31 -24
-11 11 -1 40 14 40 6 0 13 -7 17 -16z m-42 -34 c3 -5 0 -10 -7 -10 -9 0 -9 -3
2 -10 12 -8 11 -10 -7 -10 -24 0 -38 14 -28 30 3 6 12 10 20 10 8 0 17 -4 20
-10z m90 -10 c0 -8 -8 -16 -19 -18 -11 -3 -16 0 -12 7 4 6 2 11 -4 11 -6 0 -8
5 -5 11 10 15 40 7 40 -11z m-55 -15 c0 -8 -4 -15 -10 -15 -5 0 -10 7 -10 15
0 8 5 15 10 15 6 0 10 -7 10 -15z m-23 -23 c10 -6 10 -12 -1 -28 -11 -15 -17
-16 -27 -7 -6 6 -9 19 -6 27 7 18 16 20 34 8z m60 -8 c8 -21 -13 -42 -28 -27
-13 13 -5 43 11 43 6 0 13 -7 17 -16z"/>
</g>
</svg>
